# xmcd
#
# Track frame offsets:
#	150
#	10298
#	35518
#	45801
#	66164
#	72738
#	95925
#	97958
#	116533
#	120464
#	156873
#	160239
#	181211
#	183885
#	206514
#	211958
#	226965
#	230891
#	245941
#	247362
#	265432
#
# Disc length: 3564 seconds
#
# Revision: 13
# Processed by: cddbd v1.5.2PL0 Copyright (c) Steve Scherf et al.
# Submitted via: EasyCDDAExtractor 12.0.1.1
#
DISCID=350dea15
DTITLE=Igreja Batista Da Lagoinha - Dzieci przed Tronem
DYEAR=2001
DGENRE=Gospel
TTITLE0=Dialog 1
TTITLE1=Autor stworzenia
TTITLE2=Dialog 2
TTITLE3=W oczach Ojca
TTITLE4=Dialog 3
TTITLE5=Milosc naszego Boga
TTITLE6=Dialog 4
TTITLE7=W chowanego
TTITLE8=Dialog 5
TTITLE9=Zeby uwielbiac Pana
TTITLE10=Dialog 6
TTITLE11=Rap rodzinny
TTITLE12=Dialog 7
TTITLE13=Male serce
TTITLE14=Dialog 8
TTITLE15=Zolnierz Pana
TTITLE16=Dialog 9
TTITLE17=Bog
TTITLE18=Dialog 10
TTITLE19=Wszystko gra
TTITLE20=Pozegnanie
EXTD=
EXTT0=
EXTT1=
EXTT2=
EXTT3=
EXTT4=
EXTT5=
EXTT6=
EXTT7=
EXTT8=
EXTT9=
EXTT10=
EXTT11=
EXTT12=
EXTT13=
EXTT14=
EXTT15=
EXTT16=
EXTT17=
EXTT18=
EXTT19=
EXTT20=
PLAYORDER=
